<mxfile host="app.diagrams.net" agent="Mozilla/5.0 (Windows NT 10.0; Win64; x64) AppleWebKit/537.36 (KHTML, like Gecko) Chrome/128.0.0.0 Safari/537.36 OPR/114.0.0.0" version="25.0.0">
  <diagram name="Page-1" id="g2mzyiQeSs_8QXfalpOR">
    <mxGraphModel dx="2533" dy="1405" grid="1" gridSize="10" guides="1" tooltips="1" connect="1" arrows="1" fold="1" page="1" pageScale="1" pageWidth="850" pageHeight="1100" math="0" shadow="0">
      <root>
        <mxCell id="0" />
        <mxCell id="1" parent="0" />
        <mxCell id="3xGRA8Y3mvGUpb4yBstS-4" value="Student" style="shape=umlActor;html=1;verticalLabelPosition=bottom;verticalAlign=top;align=center;" vertex="1" parent="1">
          <mxGeometry x="420" y="330" width="30" height="60" as="geometry" />
        </mxCell>
        <mxCell id="3xGRA8Y3mvGUpb4yBstS-7" value="&amp;lt;&amp;lt;include&amp;gt;&amp;gt;" style="edgeStyle=none;html=1;endArrow=open;verticalAlign=bottom;dashed=1;labelBackgroundColor=none;rounded=0;entryX=0;entryY=0.3333333333333333;entryDx=0;entryDy=0;entryPerimeter=0;exitX=1;exitY=0.3333333333333333;exitDx=0;exitDy=0;exitPerimeter=0;" edge="1" parent="1" source="3xGRA8Y3mvGUpb4yBstS-11" target="3xGRA8Y3mvGUpb4yBstS-10">
          <mxGeometry x="-0.2332" y="-4" width="160" relative="1" as="geometry">
            <mxPoint x="390" y="390" as="sourcePoint" />
            <mxPoint x="550" y="390" as="targetPoint" />
            <mxPoint as="offset" />
          </mxGeometry>
        </mxCell>
        <mxCell id="3xGRA8Y3mvGUpb4yBstS-10" value="Teacher" style="shape=umlActor;html=1;verticalLabelPosition=bottom;verticalAlign=top;align=center;" vertex="1" parent="1">
          <mxGeometry x="590" y="330" width="30" height="60" as="geometry" />
        </mxCell>
        <mxCell id="3xGRA8Y3mvGUpb4yBstS-11" value="Administrator" style="shape=umlActor;html=1;verticalLabelPosition=bottom;verticalAlign=top;align=center;" vertex="1" parent="1">
          <mxGeometry x="505" y="490" width="30" height="60" as="geometry" />
        </mxCell>
        <mxCell id="3xGRA8Y3mvGUpb4yBstS-16" value="Registration &amp;amp; Authorization" style="ellipse;whiteSpace=wrap;html=1;" vertex="1" parent="1">
          <mxGeometry x="200" y="210" width="140" height="70" as="geometry" />
        </mxCell>
        <mxCell id="3xGRA8Y3mvGUpb4yBstS-17" value="View Courses" style="ellipse;whiteSpace=wrap;html=1;" vertex="1" parent="1">
          <mxGeometry x="200" y="290" width="140" height="70" as="geometry" />
        </mxCell>
        <mxCell id="3xGRA8Y3mvGUpb4yBstS-18" value="Register for Course" style="ellipse;whiteSpace=wrap;html=1;" vertex="1" parent="1">
          <mxGeometry x="10" y="290" width="140" height="70" as="geometry" />
        </mxCell>
        <mxCell id="3xGRA8Y3mvGUpb4yBstS-19" value="Take Tests" style="ellipse;whiteSpace=wrap;html=1;" vertex="1" parent="1">
          <mxGeometry x="200" y="370" width="140" height="70" as="geometry" />
        </mxCell>
        <mxCell id="3xGRA8Y3mvGUpb4yBstS-20" value="Leave Feedback" style="ellipse;whiteSpace=wrap;html=1;" vertex="1" parent="1">
          <mxGeometry x="200" y="450" width="140" height="70" as="geometry" />
        </mxCell>
        <mxCell id="3xGRA8Y3mvGUpb4yBstS-22" value="Create/Edit Courses" style="ellipse;whiteSpace=wrap;html=1;" vertex="1" parent="1">
          <mxGeometry x="700" y="210" width="140" height="70" as="geometry" />
        </mxCell>
        <mxCell id="3xGRA8Y3mvGUpb4yBstS-23" value="Add Materials" style="ellipse;whiteSpace=wrap;html=1;" vertex="1" parent="1">
          <mxGeometry x="700" y="290" width="140" height="70" as="geometry" />
        </mxCell>
        <mxCell id="3xGRA8Y3mvGUpb4yBstS-24" value="Create Tests" style="ellipse;whiteSpace=wrap;html=1;" vertex="1" parent="1">
          <mxGeometry x="700" y="370" width="140" height="70" as="geometry" />
        </mxCell>
        <mxCell id="3xGRA8Y3mvGUpb4yBstS-25" value="Moderate Reviews" style="ellipse;whiteSpace=wrap;html=1;" vertex="1" parent="1">
          <mxGeometry x="700" y="450" width="140" height="70" as="geometry" />
        </mxCell>
        <mxCell id="3xGRA8Y3mvGUpb4yBstS-26" value="Manage Accounts" style="ellipse;whiteSpace=wrap;html=1;" vertex="1" parent="1">
          <mxGeometry x="290" y="620" width="140" height="70" as="geometry" />
        </mxCell>
        <mxCell id="3xGRA8Y3mvGUpb4yBstS-27" value="Manage Categories" style="ellipse;whiteSpace=wrap;html=1;" vertex="1" parent="1">
          <mxGeometry x="450" y="620" width="140" height="70" as="geometry" />
        </mxCell>
        <mxCell id="3xGRA8Y3mvGUpb4yBstS-28" value="View Analytics" style="ellipse;whiteSpace=wrap;html=1;" vertex="1" parent="1">
          <mxGeometry x="610" y="620" width="140" height="70" as="geometry" />
        </mxCell>
        <mxCell id="3xGRA8Y3mvGUpb4yBstS-31" value="" style="endArrow=classic;html=1;rounded=0;entryX=1;entryY=0.5;entryDx=0;entryDy=0;exitX=0;exitY=0.3333333333333333;exitDx=0;exitDy=0;exitPerimeter=0;" edge="1" parent="1" source="3xGRA8Y3mvGUpb4yBstS-4" target="3xGRA8Y3mvGUpb4yBstS-16">
          <mxGeometry width="50" height="50" relative="1" as="geometry">
            <mxPoint x="500" y="320" as="sourcePoint" />
            <mxPoint x="550" y="270" as="targetPoint" />
          </mxGeometry>
        </mxCell>
        <mxCell id="3xGRA8Y3mvGUpb4yBstS-32" value="" style="endArrow=classic;html=1;rounded=0;entryX=1;entryY=0.5;entryDx=0;entryDy=0;exitX=0;exitY=0.3333333333333333;exitDx=0;exitDy=0;exitPerimeter=0;" edge="1" parent="1" source="3xGRA8Y3mvGUpb4yBstS-4" target="3xGRA8Y3mvGUpb4yBstS-17">
          <mxGeometry width="50" height="50" relative="1" as="geometry">
            <mxPoint x="510" y="330" as="sourcePoint" />
            <mxPoint x="560" y="280" as="targetPoint" />
          </mxGeometry>
        </mxCell>
        <mxCell id="3xGRA8Y3mvGUpb4yBstS-33" value="" style="endArrow=classic;html=1;rounded=0;entryX=1;entryY=0.5;entryDx=0;entryDy=0;exitX=0;exitY=0.5;exitDx=0;exitDy=0;" edge="1" parent="1" source="3xGRA8Y3mvGUpb4yBstS-17" target="3xGRA8Y3mvGUpb4yBstS-18">
          <mxGeometry width="50" height="50" relative="1" as="geometry">
            <mxPoint x="150" y="390" as="sourcePoint" />
            <mxPoint x="570" y="290" as="targetPoint" />
          </mxGeometry>
        </mxCell>
        <mxCell id="3xGRA8Y3mvGUpb4yBstS-34" value="" style="endArrow=classic;html=1;rounded=0;entryX=1;entryY=0.5;entryDx=0;entryDy=0;exitX=0;exitY=0.3333333333333333;exitDx=0;exitDy=0;exitPerimeter=0;" edge="1" parent="1" source="3xGRA8Y3mvGUpb4yBstS-4" target="3xGRA8Y3mvGUpb4yBstS-19">
          <mxGeometry width="50" height="50" relative="1" as="geometry">
            <mxPoint x="530" y="350" as="sourcePoint" />
            <mxPoint x="580" y="300" as="targetPoint" />
          </mxGeometry>
        </mxCell>
        <mxCell id="3xGRA8Y3mvGUpb4yBstS-35" value="" style="endArrow=classic;html=1;rounded=0;entryX=1;entryY=0.5;entryDx=0;entryDy=0;exitX=0;exitY=0.3333333333333333;exitDx=0;exitDy=0;exitPerimeter=0;" edge="1" parent="1" source="3xGRA8Y3mvGUpb4yBstS-4" target="3xGRA8Y3mvGUpb4yBstS-20">
          <mxGeometry width="50" height="50" relative="1" as="geometry">
            <mxPoint x="540" y="360" as="sourcePoint" />
            <mxPoint x="590" y="310" as="targetPoint" />
          </mxGeometry>
        </mxCell>
        <mxCell id="3xGRA8Y3mvGUpb4yBstS-36" value="" style="endArrow=classic;html=1;rounded=0;entryX=0;entryY=0.5;entryDx=0;entryDy=0;exitX=1;exitY=0.3333333333333333;exitDx=0;exitDy=0;exitPerimeter=0;" edge="1" parent="1" source="3xGRA8Y3mvGUpb4yBstS-10" target="3xGRA8Y3mvGUpb4yBstS-22">
          <mxGeometry width="50" height="50" relative="1" as="geometry">
            <mxPoint x="300" y="370" as="sourcePoint" />
            <mxPoint x="350" y="320" as="targetPoint" />
          </mxGeometry>
        </mxCell>
        <mxCell id="3xGRA8Y3mvGUpb4yBstS-37" value="" style="endArrow=classic;html=1;rounded=0;entryX=0;entryY=0.5;entryDx=0;entryDy=0;exitX=1;exitY=0.3333333333333333;exitDx=0;exitDy=0;exitPerimeter=0;" edge="1" parent="1" source="3xGRA8Y3mvGUpb4yBstS-10" target="3xGRA8Y3mvGUpb4yBstS-23">
          <mxGeometry width="50" height="50" relative="1" as="geometry">
            <mxPoint x="310" y="380" as="sourcePoint" />
            <mxPoint x="360" y="330" as="targetPoint" />
          </mxGeometry>
        </mxCell>
        <mxCell id="3xGRA8Y3mvGUpb4yBstS-38" value="" style="endArrow=classic;html=1;rounded=0;entryX=0;entryY=0.5;entryDx=0;entryDy=0;exitX=1;exitY=0.3333333333333333;exitDx=0;exitDy=0;exitPerimeter=0;" edge="1" parent="1" source="3xGRA8Y3mvGUpb4yBstS-10" target="3xGRA8Y3mvGUpb4yBstS-24">
          <mxGeometry width="50" height="50" relative="1" as="geometry">
            <mxPoint x="320" y="390" as="sourcePoint" />
            <mxPoint x="370" y="340" as="targetPoint" />
          </mxGeometry>
        </mxCell>
        <mxCell id="3xGRA8Y3mvGUpb4yBstS-39" value="" style="endArrow=classic;html=1;rounded=0;entryX=0;entryY=0.5;entryDx=0;entryDy=0;exitX=1;exitY=0.3333333333333333;exitDx=0;exitDy=0;exitPerimeter=0;" edge="1" parent="1" source="3xGRA8Y3mvGUpb4yBstS-10" target="3xGRA8Y3mvGUpb4yBstS-25">
          <mxGeometry width="50" height="50" relative="1" as="geometry">
            <mxPoint x="330" y="400" as="sourcePoint" />
            <mxPoint x="380" y="350" as="targetPoint" />
          </mxGeometry>
        </mxCell>
        <mxCell id="3xGRA8Y3mvGUpb4yBstS-40" value="" style="endArrow=classic;html=1;rounded=0;entryX=0.5;entryY=0;entryDx=0;entryDy=0;exitX=0;exitY=0.3333333333333333;exitDx=0;exitDy=0;exitPerimeter=0;" edge="1" parent="1" source="3xGRA8Y3mvGUpb4yBstS-11" target="3xGRA8Y3mvGUpb4yBstS-26">
          <mxGeometry width="50" height="50" relative="1" as="geometry">
            <mxPoint x="450" y="460" as="sourcePoint" />
            <mxPoint x="500" y="410" as="targetPoint" />
          </mxGeometry>
        </mxCell>
        <mxCell id="3xGRA8Y3mvGUpb4yBstS-41" value="" style="endArrow=classic;html=1;rounded=0;entryX=0.5;entryY=0;entryDx=0;entryDy=0;exitX=0;exitY=0.3333333333333333;exitDx=0;exitDy=0;exitPerimeter=0;" edge="1" parent="1" source="3xGRA8Y3mvGUpb4yBstS-11" target="3xGRA8Y3mvGUpb4yBstS-27">
          <mxGeometry width="50" height="50" relative="1" as="geometry">
            <mxPoint x="460" y="470" as="sourcePoint" />
            <mxPoint x="510" y="420" as="targetPoint" />
            <Array as="points">
              <mxPoint x="470" y="570" />
            </Array>
          </mxGeometry>
        </mxCell>
        <mxCell id="3xGRA8Y3mvGUpb4yBstS-42" value="" style="endArrow=classic;html=1;rounded=0;entryX=0.5;entryY=0;entryDx=0;entryDy=0;exitX=1;exitY=0.3333333333333333;exitDx=0;exitDy=0;exitPerimeter=0;" edge="1" parent="1" source="3xGRA8Y3mvGUpb4yBstS-11" target="3xGRA8Y3mvGUpb4yBstS-28">
          <mxGeometry width="50" height="50" relative="1" as="geometry">
            <mxPoint x="470" y="480" as="sourcePoint" />
            <mxPoint x="520" y="430" as="targetPoint" />
          </mxGeometry>
        </mxCell>
        <mxCell id="3xGRA8Y3mvGUpb4yBstS-43" value="Check Progress" style="ellipse;whiteSpace=wrap;html=1;" vertex="1" parent="1">
          <mxGeometry x="10" y="370" width="140" height="70" as="geometry" />
        </mxCell>
        <mxCell id="3xGRA8Y3mvGUpb4yBstS-44" value="" style="endArrow=classic;html=1;rounded=0;entryX=1;entryY=0.5;entryDx=0;entryDy=0;exitX=0;exitY=0.5;exitDx=0;exitDy=0;" edge="1" parent="1" source="3xGRA8Y3mvGUpb4yBstS-19" target="3xGRA8Y3mvGUpb4yBstS-43">
          <mxGeometry width="50" height="50" relative="1" as="geometry">
            <mxPoint x="210" y="335" as="sourcePoint" />
            <mxPoint x="160" y="335" as="targetPoint" />
          </mxGeometry>
        </mxCell>
        <mxCell id="3xGRA8Y3mvGUpb4yBstS-45" value="Extends" style="endArrow=block;endSize=16;endFill=0;html=1;rounded=0;entryX=1;entryY=0.3333333333333333;entryDx=0;entryDy=0;entryPerimeter=0;exitX=0;exitY=0.3333333333333333;exitDx=0;exitDy=0;exitPerimeter=0;" edge="1" parent="1" source="3xGRA8Y3mvGUpb4yBstS-10" target="3xGRA8Y3mvGUpb4yBstS-4">
          <mxGeometry width="160" relative="1" as="geometry">
            <mxPoint x="480" y="340" as="sourcePoint" />
            <mxPoint x="640" y="340" as="targetPoint" />
          </mxGeometry>
        </mxCell>
        <mxCell id="3xGRA8Y3mvGUpb4yBstS-49" value="Generalization" style="endArrow=block;endSize=16;endFill=0;html=1;rounded=0;entryX=1;entryY=0.3333333333333333;entryDx=0;entryDy=0;entryPerimeter=0;exitX=0;exitY=0.3333333333333333;exitDx=0;exitDy=0;exitPerimeter=0;" edge="1" parent="1" source="3xGRA8Y3mvGUpb4yBstS-11" target="3xGRA8Y3mvGUpb4yBstS-4">
          <mxGeometry x="-0.345" y="7" width="160" relative="1" as="geometry">
            <mxPoint x="600" y="360" as="sourcePoint" />
            <mxPoint x="460" y="360" as="targetPoint" />
            <mxPoint as="offset" />
          </mxGeometry>
        </mxCell>
      </root>
    </mxGraphModel>
  </diagram>
</mxfile>
